HIERARCHY
ROOT root
{
	OFFSET	0	13.1	24.9
	CHANNELS 6  Xposition Yposition Zposition Xrotation Yrotation Zrotation
	JOINT spine_1
	{
		OFFSET	0	9.99999	0
		CHANNELS 3  Xrotation Yrotation Zrotation
		JOINT spine_2
		{
			OFFSET	0	112	-10
			CHANNELS 3  Xrotation Yrotation Zrotation
			JOINT spine_3
			{
				OFFSET	0	206.5	19.3
				CHANNELS 3  Xrotation Yrotation Zrotation
				JOINT spine_4
				{
					OFFSET	0	110.4	14.6
					CHANNELS 3  Xrotation Yrotation Zrotation
					JOINT neck_1
					{
						OFFSET	0	71.8	-50.3
						CHANNELS 3  Xrotation Yrotation Zrotation
						JOINT neck_2
						{
							OFFSET	0	86.2	-25.8
							CHANNELS 3  Xrotation Yrotation Zrotation
							JOINT head_ee
							{
								OFFSET	0	179.8	-8.7
								CHANNELS 3  Xrotation Yrotation Zrotation
								End Site
								{
									OFFSET	1	0	0
								}
							}
						}
					}
					JOINT left_clavicle
					{
						OFFSET	-43.2	22.4	-70.8
						CHANNELS 3  Xrotation Yrotation Zrotation
						JOINT left_shoulder
						{
							OFFSET	-93.9	-5.79999	48.7
							CHANNELS 3  Xrotation Yrotation Zrotation
							JOINT left_elbow
							{
								OFFSET	-291.4	-30.8	15.2
								CHANNELS 3  Xrotation Yrotation Zrotation
								JOINT left_lowarm_twist
								{
									OFFSET	-110.7	-3.89999	13.6
									CHANNELS 3  Xrotation Yrotation Zrotation
									JOINT left_hand
									{
										OFFSET	-110.7	-3.89999	13.6
										CHANNELS 3  Xrotation Yrotation Zrotation
										JOINT left_ee
										{
											OFFSET	-80.8	-5.10001	12.1
											CHANNELS 3  Xrotation Yrotation Zrotation
											End Site
											{
												OFFSET	1	0	0
											}
										}
									}
								}
							}
						}
					}
					JOINT right_clavicle
					{
						OFFSET	43.2	22.4	-70.8
						CHANNELS 3  Xrotation Yrotation Zrotation
						JOINT right_shoulder
						{
							OFFSET	93.9	-5.79999	48.7
							CHANNELS 3  Xrotation Yrotation Zrotation
							JOINT right_elbow
							{
								OFFSET	291.4	-30.8	15.2
								CHANNELS 3  Xrotation Yrotation Zrotation
								JOINT right_lowarm_twist
								{
									OFFSET	110.7	-3.89999	13.6
									CHANNELS 3  Xrotation Yrotation Zrotation
									JOINT right_hand
									{
										OFFSET	110.7	-3.89999	13.6
										CHANNELS 3  Xrotation Yrotation Zrotation
										JOINT right_ee
										{
											OFFSET	80.8	-5.10001	12.1
											CHANNELS 3  Xrotation Yrotation Zrotation
											End Site
											{
												OFFSET	1	0	0
											}
										}
									}
								}
							}
						}
					}
				}
			}
		}
	}
	JOINT left_hip
	{
		OFFSET	-82.8	-127.5	0.300001
		CHANNELS 3  Xrotation Yrotation Zrotation
		JOINT left_knee
		{
			OFFSET	-28.2	-396.7	2.2
			CHANNELS 3  Xrotation Yrotation Zrotation
			JOINT left_ankle
			{
				OFFSET	-11.7	-411.3	35.4
				CHANNELS 3  Xrotation Yrotation Zrotation
				JOINT left_toes
				{
					OFFSET	0	-60	-88.6
					CHANNELS 3  Xrotation Yrotation Zrotation
					JOINT left_foot_ee
					{
						OFFSET	-22.5	-16.5	-42.2
						CHANNELS 3  Xrotation Yrotation Zrotation
						End Site
						{
							OFFSET	1	0	0
						}
					}
				}
			}
		}
	}
	JOINT right_hip
	{
		OFFSET	82.8	-127.5	0.300001
		CHANNELS 3  Xrotation Yrotation Zrotation
		JOINT right_knee
		{
			OFFSET	28.2	-396.7	2.2
			CHANNELS 3  Xrotation Yrotation Zrotation
			JOINT right_ankle
			{
				OFFSET	11.7	-411.3	35.4
				CHANNELS 3  Xrotation Yrotation Zrotation
				JOINT right_toes
				{
					OFFSET	0	-60	-88.6
					CHANNELS 3  Xrotation Yrotation Zrotation
					JOINT right_foot_ee
					{
						OFFSET	22.5	-16.5	-42.2
						CHANNELS 3  Xrotation Yrotation Zrotation
						End Site
						{
							OFFSET	1	0	0
						}
					}
				}
			}
		}
	}
}
MOTION
Frames: 6
Frame Time: 0.02
3417.03668495 735.777 -1598.73001873 -17.0411034874 73.8534743836 17.1506162163 2.35896 0.35599 -0.10344 2.3589 0.361851 -0.0805774 2.35839 0.370278 -0.0179761 2.35857 0.362792 -0.0762298 -24.9063 16.7761 -2.72276 -27.5093 33.3726 6.92876 -0.0 0.0 -0.0 -4.37055 20.0203 -4.10813 -16.3579 -20.1 74.1203 1.29591 -32.6972 0.38016 28.9472 0.0976932 -3.65742 0.315584 21.9041 10.659 -0.0 0.0 -0.0 10.502 19.2908 -20.5795 -11.0508 25.8818 -59.7627 0.996426 26.2704 -0.232527 24.2711 -0.207621 3.07037 5.61598 -27.2404 -48.2227 0.0 0.0 0.0 21.403 0.663541 -4.81393 -43.6918 -0.718183 6.5072 33.2711 25.8932 -4.50029 -35.5976 0.0 0.0 -0.0 0.0 -0.0 5.40196 -13.5895 -0.397385 -11.0541 -0.294984 -1.66817 18.6771 18.6358 2.85008 11.995 -0.0 -0.0 0.0 0.0 0.0 
3422.0795879 735.777 -1604.87573117 -15.0176145191 71.6680126625 15.0323535806 2.35896 0.35599 -0.10344 2.3589 0.361851 -0.0805774 2.35839 0.370278 -0.0179761 2.35857 0.362792 -0.0762298 -24.9063 16.7761 -2.72276 -27.5093 33.3726 6.92876 -0.0 0.0 -0.0 -4.37055 20.0203 -4.10813 -16.3579 -20.1 74.1203 1.29591 -32.6972 0.38016 28.9472 0.0976932 -3.65742 0.315584 21.9041 10.659 -0.0 0.0 -0.0 10.502 19.2908 -20.5795 -11.0508 25.8818 -59.7627 0.996426 26.2704 -0.232527 24.2711 -0.207621 3.07037 5.61598 -27.2404 -48.2227 0.0 0.0 0.0 21.403 0.663541 -4.81393 -43.6918 -0.718183 6.5072 33.2711 25.8932 -4.50029 -35.5976 0.0 0.0 -0.0 0.0 -0.0 5.40196 -13.5895 -0.397385 -11.0541 -0.294984 -1.66817 18.6771 18.6358 2.85008 11.995 -0.0 -0.0 0.0 0.0 0.0 
3416.0301853 737.966 -1607.47819434 -14.1381871426 70.3800881985 14.3862470416 2.12849 0.495932 0.199465 2.12838 0.482234 0.230618 2.13036 0.434855 0.310863 2.13055 0.478493 0.238284 -24.7757 18.6976 -2.39947 -28.0691 36.9032 8.56429 -0.0 0.0 -0.0 -4.42019 19.9082 -4.20878 -18.3254 -18.7803 74.1275 1.27176 -32.2093 0.367201 29.1733 0.0911659 -3.68556 0.307101 20.7793 10.2048 -0.0 0.0 -0.0 10.5792 19.975 -20.7057 -9.74118 26.7198 -60.874 1.23667 31.4908 -0.348683 23.9627 -0.213182 3.03136 5.73642 -30.1219 -49.2385 0.0 0.0 0.0 22.5256 3.9643 -6.458 -39.8184 -0.455252 5.97285 29.8825 26.2712 -4.12579 -36.601 0.0 0.0 -0.0 0.0 -0.0 4.65941 -14.7269 -0.897179 -9.92981 -0.279762 -1.49633 21.307 19.548 3.23082 12.5375 -0.0 -0.0 0.0 0.0 0.0 
3406.29471485 736.693 -1608.43857636 -12.1660335276 70.4595963451 12.53067026 2.08616 0.31454 0.239029 2.08614 0.298692 0.258559 2.08751 0.249018 0.306692 2.0875 0.294329 0.263515 -25.4549 19.1226 -1.88502 -29.0138 37.4421 9.6139 -0.0 0.0 -0.0 -4.84079 20.4232 -4.70899 -19.455 -17.7081 74.7421 1.22437 -31.2363 0.342281 28.6893 0.105001 -3.62529 0.195489 21.6487 9.8529 -0.0 0.0 -0.0 10.9491 20.4868 -21.5038 -7.41237 27.6624 -60.9227 1.41788 35.0812 -0.448181 26.3107 -0.165569 3.32751 5.94299 -28.3268 -51.3024 0.0 0.0 0.0 23.6629 3.44496 -7.05547 -38.649 -0.38306 5.80822 28.4159 25.452 -3.93267 -37.4072 0.0 0.0 -0.0 0.0 -0.0 3.30651 -15.5517 -0.897603 -9.14237 -0.267094 -1.37616 22.0822 19.5246 3.33311 12.2176 -0.0 -0.0 0.0 0.0 0.0 
3397.05370252 733.151 -1607.30487438 -12.1571912411 71.3740473211 12.8787589952 2.04428 0.267982 0.328613 2.04431 0.246529 0.344999 2.04581 0.182299 0.382842 2.04569 0.240473 0.349247 -28.6177 19.1913 -1.00299 -32.7114 36.9351 11.7 -0.0 0.0 -0.0 -5.10803 20.7432 -5.02292 -20.4305 -17.7314 75.6954 1.1923 -30.5662 0.325808 27.9267 0.125766 -3.53009 0.181749 21.6857 9.7847 -0.0 0.0 -0.0 11.201 21.1266 -22.0259 -6.27989 28.398 -60.8776 1.7316 40.6189 -0.640903 25.665 -0.179874 3.24626 6.04938 -30.0885 -52.2244 0.0 0.0 0.0 24.1991 3.70877 -7.77011 -36.755 -0.273333 5.53864 29.0937 26.9026 -4.04951 -38.0427 0.0 0.0 -0.0 0.0 -0.0 2.71446 -13.8375 -1.0342 -10.0952 -0.282213 -1.52159 21.9052 21.192 3.35957 14.0719 -0.0 -0.0 0.0 0.0 0.0 
3385.2506864 733.278 -1604.89479129 -10.4666263887 71.7706119496 11.0866124376 1.91654 0.512181 0.342964 1.91648 0.48932 0.374861 1.91973 0.415115 0.455669 1.91976 0.481869 0.384391 -28.688 19.3202 -0.367523 -32.8013 36.949 12.4018 -0.0 0.0 -0.0 -4.70815 20.8629 -4.40356 -21.0749 -16.8049 75.213 1.07416 -28.0171 0.267996 27.4956 0.136944 -3.47616 0.0949274 21.6211 9.24554 -0.0 0.0 -0.0 11.3881 21.2865 -22.4386 -5.42402 28.7764 -60.7412 1.89074 43.121 -0.747146 25.412 -0.185227 3.21439 6.03035 -29.9196 -52.0522 0.0 0.0 0.0 23.9421 2.9139 -7.86473 -31.1382 -0.0012099 4.72024 27.5564 28.2341 -3.89959 -38.3686 0.0 0.0 -0.0 0.0 -0.0 2.08769 -10.0268 -1.45215 -10.9092 -0.293213 -1.64601 22.744 19.8011 3.42823 13.9012 -0.0 -0.0 0.0 0.0 0.0 
